<!DOCTYPE svg PUBLIC "-//W3C//DTD SVG 20010904//EN" "http://www.w3.org/TR/2001/REC-SVG-20010904/DTD/svg10.dtd">
<svg version="1.0" xmlns="http://www.w3.org/2000/svg" width="800px" height="400px" viewBox="0 0 8000 4000" preserveAspectRatio="xMidYMid meet">
<g id="layer101" fill="#080808" stroke="none">
<path d="M1509 3511 c-28 -28 -29 -34 -29 -115 0 -75 3 -88 24 -113 l24 -28 386 -5 386 -5 -157 -270 c-86 -148 -168 -297 -184 -331 -79 -173 -75 -384 11 -554 66 -129 765 -1330 804 -1380 79 -103 205 -186 341 -227 55 -16 130 -18 858 -21 667 -2 813 0 884 12 153 26 312 122 399 239 67 91 792 1350 825 1433 56 141 57 326 2 464 -14 35 -100 192 -190 347 -89 155 -163 285 -163 288 0 3 165 5 366 5 l366 0 29 29 c28 28 29 34 29 116 0 82 -1 88 -29 116 l-29 29 -2462 0 -2462 0 -29 -29z"/>
</g>
<g id="layer102" fill="#403c3e" stroke="none">
<path d="M1509 3511 c-28 -28 -29 -34 -29 -115 0 -75 3 -88 24 -113 l24 -28 386 -5 386 -5 -157 -270 c-86 -148 -168 -297 -184 -331 -79 -173 -75 -384 11 -554 66 -129 765 -1330 804 -1380 79 -103 205 -186 341 -227 55 -16 130 -18 858 -21 667 -2 813 0 884 12 153 26 312 122 399 239 67 91 792 1350 825 1433 56 141 57 326 2 464 -14 35 -100 192 -190 347 -89 155 -163 285 -163 288 0 3 165 5 366 5 l366 0 29 29 c28 28 29 34 29 116 0 82 -1 88 -29 116 l-29 29 -2462 0 -2462 0 -29 -29z m1941 -2101 c0 -38 1 -40 21 -29 18 9 26 7 48 -9 43 -32 41 -90 -5 -111 -22 -10 -31 -9 -50 4 -21 14 -24 14 -24 0 0 -8 -7 -15 -15 -15 -12 0 -15 18 -15 100 0 93 1 100 20 100 17 0 20 -7 20 -40z m-334 -61 l20 -41 18 41 c13 27 25 41 38 41 11 0 18 -3 16 -7 -2 -5 -14 -29 -27 -54 l-24 -46 28 -47 c25 -43 26 -46 7 -46 -12 0 -24 11 -32 30 -18 44 -28 45 -44 5 -10 -24 -21 -35 -35 -35 -20 0 -20 2 6 49 l27 49 -27 51 c-26 46 -27 51 -10 51 12 0 26 -15 39 -41z m237 13 c26 -23 18 -70 -15 -95 -23 -17 -31 -18 -57 -8 -17 8 -34 24 -39 39 -25 72 52 116 111 64z m320 17 c33 -15 49 -52 37 -84 -11 -28 -50 -48 -77 -38 -69 24 -70 101 -3 126 8 3 16 6 17 6 1 1 13 -4 26 -10z m277 -59 c0 -63 -2 -70 -20 -70 -18 0 -20 7 -20 55 0 48 -2 55 -20 55 -18 0 -20 -7 -20 -55 0 -48 -2 -55 -20 -55 -18 0 -20 7 -20 55 0 48 -2 55 -20 55 -18 0 -20 -7 -20 -55 0 -48 -2 -55 -20 -55 -18 0 -20 7 -20 70 l0 70 100 0 100 0 0 -70z m123 59 c33 -15 49 -52 37 -84 -11 -28 -50 -48 -77 -38 -69 24 -70 101 -3 126 8 3 16 6 17 6 1 1 13 -4 26 -10z m202 -36 c27 -72 37 -76 29 -10 -6 54 -6 57 15 57 19 0 21 -5 21 -70 0 -67 -1 -70 -24 -70 -20 0 -27 9 -42 50 -10 28 -21 50 -26 50 -4 0 -4 -22 -1 -50 5 -46 4 -50 -16 -50 -19 0 -21 5 -21 70 0 67 1 70 24 70 19 0 27 -9 41 -47z m297 16 c18 -21 14 -47 -10 -65 -12 -8 -11 -12 2 -23 19 -16 21 -45 4 -58 -20 -16 -66 -24 -93 -17 -24 6 -25 9 -25 94 0 61 4 90 13 94 24 10 92 -6 109 -25z m126 20 c2 6 10 11 18 11 15 0 20 -72 8 -105 -8 -21 -45 -35 -73 -28 -31 8 -25 23 9 23 39 0 39 16 1 23 -43 9 -57 41 -31 67 17 17 24 19 42 9 17 -9 23 -9 26 0z m108 -46 l7 -58 15 53 c8 28 20 52 27 52 8 0 22 -24 32 -52 l18 -53 3 58 c2 46 6 57 20 57 15 0 17 -9 14 -70 -3 -66 -5 -70 -27 -70 -18 0 -26 8 -35 38 -19 56 -26 58 -39 8 -10 -39 -15 -46 -36 -46 -21 0 -25 5 -25 33 0 17 -3 49 -6 70 -5 29 -3 37 9 37 11 0 17 -15 23 -57z m-1256 -203 c0 -37 2 -39 23 -31 72 27 116 -82 47 -119 -17 -9 -27 -8 -46 5 -22 14 -25 14 -30 0 -3 -8 -12 -15 -20 -15 -11 0 -14 21 -14 100 0 93 1 100 20 100 17 0 20 -7 20 -40z m-326 -62 l18 -43 21 43 c13 27 28 42 40 42 16 0 16 -5 -10 -50 l-28 -50 26 -50 c25 -47 26 -50 7 -50 -12 0 -24 12 -34 35 -16 40 -26 39 -44 -5 -8 -18 -20 -30 -31 -30 -18 0 -18 3 6 51 l26 50 -26 46 c-30 54 -30 53 -7 53 13 0 25 -14 36 -42z m209 31 c33 -15 49 -52 37 -84 -11 -28 -50 -48 -77 -38 -69 24 -70 101 -3 126 8 3 16 6 17 6 1 1 13 -4 26 -10z m340 0 c33 -15 49 -52 37 -84 -11 -28 -50 -48 -77 -38 -69 24 -70 101 -3 126 8 3 16 6 17 6 1 1 13 -4 26 -10z m277 -59 c0 -63 -2 -70 -20 -70 -18 0 -20 7 -20 55 0 48 -2 55 -20 55 -18 0 -20 -7 -20 -55 0 -48 -2 -55 -20 -55 -18 0 -20 7 -20 55 0 48 -2 55 -20 55 -18 0 -20 -7 -20 -55 0 -48 -2 -55 -20 -55 -18 0 -20 7 -20 70 l0 70 100 0 100 0 0 -70z m153 42 c26 -23 18 -70 -15 -95 -23 -17 -31 -18 -57 -8 -17 8 -34 24 -39 39 -25 72 52 116 111 64z m157 -17 c0 -45 0 -45 35 -45 35 0 35 0 35 45 0 38 3 45 20 45 19 0 20 -7 20 -100 0 -93 -1 -100 -20 -100 -17 0 -20 7 -20 40 0 39 -1 40 -35 40 -34 0 -35 -1 -35 -40 0 -33 -3 -40 -20 -40 -19 0 -20 7 -20 100 0 93 1 100 20 100 17 0 20 -7 20 -45z m210 35 c13 -7 21 -7 25 0 15 25 35 9 35 -27 0 -80 -24 -107 -83 -96 -34 7 -25 23 14 23 16 0 29 5 29 10 0 6 -10 10 -22 10 -47 0 -77 58 -40 79 21 13 20 13 42 1z m131 -47 l1 -58 16 53 c19 66 39 66 63 -3 l17 -50 1 53 c1 38 5 54 16 59 24 8 25 3 18 -70 -5 -61 -8 -67 -28 -67 -18 0 -25 9 -35 46 -14 49 -24 48 -37 -6 -7 -27 -15 -36 -35 -38 -26 -3 -26 -2 -30 67 -3 62 -1 71 15 71 14 0 17 -10 18 -57z"/>
<path d="M3454 1346 c-3 -8 -4 -25 -2 -38 2 -17 9 -23 28 -23 22 0 25 4 25 35 0 29 -4 36 -23 38 -13 2 -24 -3 -28 -12z"/>
<path d="M3274 1346 c-3 -8 -4 -25 -2 -38 2 -17 9 -23 28 -23 22 0 25 4 25 35 0 29 -4 36 -23 38 -13 2 -24 -3 -28 -12z"/>
<path d="M3624 1346 c-3 -8 -4 -25 -2 -38 2 -17 9 -23 28 -23 22 0 25 4 25 35 0 29 -4 36 -23 38 -13 2 -24 -3 -28 -12z"/>
<path d="M4024 1346 c-3 -8 -4 -25 -2 -38 2 -17 9 -23 28 -23 22 0 25 4 25 35 0 29 -4 36 -23 38 -13 2 -24 -3 -28 -12z"/>
<path d="M4490 1330 c0 -25 4 -30 24 -30 13 0 26 7 30 15 9 25 -4 45 -30 45 -20 0 -24 -5 -24 -30z"/>
<path d="M4490 1245 c0 -20 5 -25 25 -25 20 0 25 5 25 25 0 20 -5 25 -25 25 -20 0 -25 -5 -25 -25z"/>
<path d="M3554 1066 c-11 -28 1 -61 22 -64 28 -4 48 22 40 53 -5 18 -13 25 -32 25 -13 0 -27 -6 -30 -14z"/>
<path d="M3384 1066 c-3 -8 -4 -25 -2 -38 2 -17 9 -23 28 -23 22 0 25 4 25 35 0 29 -4 36 -23 38 -13 2 -24 -3 -28 -12z"/>
<path d="M3724 1066 c-3 -8 -4 -25 -2 -38 2 -17 9 -23 28 -23 22 0 25 4 25 35 0 29 -4 36 -23 38 -13 2 -24 -3 -28 -12z"/>
<path d="M4124 1066 c-3 -8 -4 -25 -2 -38 2 -17 9 -23 28 -23 22 0 25 4 25 35 0 29 -4 36 -23 38 -13 2 -24 -3 -28 -12z"/>
<path d="M4550 1060 c0 -13 7 -20 20 -20 13 0 20 7 20 20 0 13 -7 20 -20 20 -13 0 -20 -7 -20 -20z"/>
</g>
<g id="layer103" fill="#5d516d" stroke="none">
<path d="M1509 3511 c-28 -28 -29 -34 -29 -115 0 -75 3 -88 24 -113 l24 -28 386 -5 386 -5 -157 -270 c-86 -148 -168 -297 -184 -331 -79 -173 -75 -384 11 -554 66 -129 765 -1330 804 -1380 79 -103 205 -186 341 -227 55 -16 130 -18 858 -21 667 -2 813 0 884 12 153 26 312 122 399 239 67 91 792 1350 825 1433 56 141 57 326 2 464 -14 35 -100 192 -190 347 -89 155 -163 285 -163 288 0 3 165 5 366 5 l366 0 29 29 c28 28 29 34 29 116 0 82 -1 88 -29 116 l-29 29 -2462 0 -2462 0 -29 -29z m1850 -452 l10 -29 633 2 633 3 3 30 3 30 299 -3 300 -3 0 -38 c0 -32 -4 -40 -22 -45 -13 -3 -571 -6 -1240 -6 l-1218 0 0 45 0 45 233 2 c127 2 260 1 294 0 58 -4 62 -5 72 -33z m-69 -819 c0 -18 -7 -20 -65 -20 -58 0 -65 2 -65 20 0 18 7 20 65 20 58 0 65 -2 65 -20z m260 0 c0 -19 -7 -20 -110 -20 -103 0 -110 1 -110 20 0 19 7 20 110 20 103 0 110 -1 110 -20z m1650 -510 l0 -60 -1220 0 -1220 0 0 60 0 60 1220 0 1220 0 0 -60z m-2170 -105 c0 -12 -17 -15 -90 -15 -73 0 -90 3 -90 15 0 12 17 15 90 15 73 0 90 -3 90 -15z m420 -215 c0 -37 2 -40 19 -30 28 15 69 -4 77 -35 15 -61 -25 -108 -74 -85 -19 8 -28 8 -30 1 -2 -6 -10 -11 -18 -11 -11 0 -14 20 -14 100 0 93 1 100 20 100 17 0 20 -7 20 -40z m-334 -55 c16 -40 26 -39 44 5 8 18 20 30 31 30 25 0 24 -5 -7 -57 l-25 -44 25 -46 c31 -55 31 -53 5 -53 -14 0 -25 11 -36 37 l-15 38 -19 -38 c-13 -24 -26 -37 -39 -37 -20 0 -19 2 5 51 l26 50 -26 46 c-30 55 -30 53 -4 53 14 0 25 -11 35 -35z m228 14 c62 -48 7 -138 -68 -109 -51 19 -54 99 -4 120 34 13 43 12 72 -11z m355 -4 c23 -22 18 -75 -8 -97 -30 -23 -52 -23 -85 3 -35 28 -35 70 1 99 29 23 66 21 92 -5z m251 -45 c0 -63 -2 -70 -20 -70 -18 0 -20 7 -20 55 0 48 -2 55 -20 55 -18 0 -20 -7 -20 -55 0 -48 -2 -55 -20 -55 -18 0 -20 7 -20 55 0 48 -2 55 -20 55 -18 0 -20 -7 -20 -55 0 -48 -2 -55 -20 -55 -18 0 -20 7 -20 70 l0 70 100 0 100 0 0 -70z m149 45 c23 -22 18 -75 -8 -97 -30 -23 -52 -23 -85 3 -35 28 -35 70 1 99 29 23 66 21 92 -5z m177 -20 c24 -63 34 -65 27 -5 -5 46 -4 50 16 50 19 0 21 -5 21 -70 0 -67 -1 -70 -24 -70 -19 0 -28 10 -45 50 -12 28 -23 50 -25 50 -2 0 -1 -22 2 -50 4 -46 3 -50 -17 -50 -19 0 -21 5 -21 70 0 67 1 70 24 70 20 0 28 -9 42 -45z m297 14 c22 -27 21 -35 -2 -58 -17 -17 -18 -21 -5 -32 17 -14 18 -43 1 -57 -19 -16 -64 -25 -92 -18 -24 6 -25 9 -25 95 0 48 3 91 8 95 14 15 96 -3 115 -25z m157 -25 c0 -45 -4 -56 -24 -69 -15 -10 -33 -14 -50 -9 -35 9 -33 24 4 24 17 0 30 5 30 10 0 6 -11 10 -25 10 -15 0 -31 9 -41 25 -15 24 -15 27 0 44 11 12 30 18 61 18 l45 0 0 -53z m76 4 l7 -52 14 48 c18 60 40 59 62 -4 l16 -45 3 53 c3 45 6 52 24 52 14 0 18 -5 14 -16 -3 -9 -6 -40 -6 -70 0 -54 -1 -55 -27 -52 -19 2 -29 11 -36 33 -5 17 -11 37 -14 45 -3 9 -11 -5 -19 -32 -12 -41 -19 -48 -39 -48 -21 0 -25 5 -25 33 0 17 -3 49 -6 70 -5 30 -4 37 9 37 12 0 18 -14 23 -52z m-1256 -208 c0 -38 1 -39 25 -28 51 23 103 -48 71 -97 -19 -29 -49 -39 -75 -26 -13 7 -22 8 -26 1 -3 -5 -13 -10 -21 -10 -11 0 -14 20 -14 100 0 93 1 100 20 100 17 0 20 -7 20 -40z m-326 -57 l18 -38 19 38 c13 24 26 37 40 37 11 0 19 -3 17 -7 -2 -5 -14 -29 -27 -54 l-24 -46 28 -47 c26 -44 26 -46 6 -46 -14 0 -27 12 -40 37 l-19 38 -15 -38 c-11 -26 -22 -37 -36 -37 -27 0 -26 2 5 55 l25 44 -25 44 c-31 52 -32 57 -8 57 11 0 25 -15 36 -37z m235 12 c23 -22 18 -75 -8 -97 -30 -23 -52 -23 -85 3 -35 28 -35 70 1 99 29 23 66 21 92 -5z m340 0 c23 -22 18 -75 -8 -97 -30 -23 -52 -23 -85 3 -35 28 -35 70 1 99 29 23 66 21 92 -5z m251 -45 c0 -63 -2 -70 -20 -70 -18 0 -20 7 -20 55 0 48 -2 55 -20 55 -18 0 -20 -7 -20 -55 0 -48 -2 -55 -20 -55 -18 0 -20 7 -20 55 0 48 -2 55 -20 55 -18 0 -20 -7 -20 -55 0 -48 -2 -55 -20 -55 -18 0 -20 7 -20 70 l0 70 100 0 100 0 0 -70z m144 49 c62 -48 7 -138 -68 -109 -51 19 -54 99 -4 120 34 13 43 12 72 -11z m166 -24 c0 -45 0 -45 35 -45 35 0 35 0 35 45 0 38 3 45 20 45 19 0 20 -7 20 -100 0 -93 -1 -100 -20 -100 -17 0 -20 7 -20 40 0 39 -1 40 -35 40 -34 0 -35 -1 -35 -40 0 -33 -3 -40 -20 -40 -19 0 -20 7 -20 100 0 93 1 100 20 100 17 0 20 -7 20 -45z m210 35 c13 -7 21 -7 25 0 3 5 13 10 21 10 23 0 19 -95 -6 -120 -21 -21 -32 -23 -67 -14 -35 10 -27 24 12 24 19 0 35 5 35 10 0 6 -9 10 -21 10 -52 0 -82 56 -41 79 21 13 20 13 42 1z m131 -42 l1 -53 16 48 c10 31 21 47 33 47 11 0 21 -15 30 -47 l13 -48 5 50 c5 38 10 51 25 53 17 4 18 0 12 -43 -3 -26 -6 -58 -6 -71 0 -19 -5 -24 -25 -24 -20 0 -27 7 -39 48 -8 27 -16 41 -19 32 -3 -8 -9 -28 -14 -45 -7 -22 -17 -31 -36 -33 -26 -3 -27 -2 -27 52 0 30 -3 61 -6 70 -4 12 0 16 15 16 19 0 21 -6 22 -52z"/>
<path d="M2820 1735 l0 -35 86 0 85 0 -3 33 -3 32 -82 3 -83 3 0 -36z"/>
<path d="M4541 1756 c-15 -18 -3 -46 20 -46 25 0 35 26 19 45 -15 19 -24 19 -39 1z"/>
<path d="M4617 1763 c-4 -3 -7 -17 -7 -30 0 -19 5 -23 30 -23 27 0 30 3 30 30 0 25 -4 30 -23 30 -13 0 -27 -3 -30 -7z"/>
<path d="M4700 1741 c0 -28 3 -31 31 -31 27 0 30 3 27 28 -2 21 -9 28 -30 30 -25 3 -28 0 -28 -27z"/>
<path d="M4794 1755 c-4 -8 -4 -22 0 -30 5 -13 32 -15 188 -13 l183 3 0 25 0 25 -183 3 c-156 2 -183 0 -188 -13z"/>
<path d="M3030 1735 c0 -12 14 -15 70 -15 56 0 70 3 70 15 0 12 -14 15 -70 15 -56 0 -70 -3 -70 -15z"/>
<path d="M3187 1743 c-18 -17 -1 -23 68 -23 60 0 75 3 75 15 0 12 -14 15 -68 15 -38 0 -72 -3 -75 -7z"/>
<path d="M3340 1735 c0 -12 15 -15 75 -15 60 0 75 3 75 15 0 12 -15 15 -75 15 -60 0 -75 -3 -75 -15z"/>
<path d="M3500 1735 c0 -12 15 -15 75 -15 60 0 75 3 75 15 0 12 -15 15 -75 15 -60 0 -75 -3 -75 -15z"/>
<path d="M3457 1354 c-11 -11 -8 -62 3 -69 6 -3 19 -3 31 0 28 9 23 69 -6 73 -12 2 -24 0 -28 -4z"/>
<path d="M3275 1341 c-10 -34 4 -63 28 -59 18 2 22 10 22 38 0 28 -4 36 -22 38 -14 2 -23 -3 -28 -17z"/>
<path d="M3624 1346 c-11 -29 1 -61 23 -64 24 -4 38 25 28 58 -7 23 -43 27 -51 6z"/>
<path d="M4024 1346 c-11 -29 1 -61 23 -64 24 -4 38 25 28 58 -7 23 -43 27 -51 6z"/>
<path d="M4490 1330 c0 -23 5 -30 19 -30 28 0 47 26 31 45 -7 8 -21 15 -31 15 -14 0 -19 -7 -19 -30z"/>
<path d="M4652 1343 c5 -26 38 -29 38 -4 0 15 -6 21 -21 21 -14 0 -19 -5 -17 -17z"/>
<path d="M3554 1054 c-9 -34 18 -64 44 -48 22 14 27 41 12 59 -20 24 -49 18 -56 -11z"/>
<path d="M3384 1066 c-11 -29 1 -61 23 -64 24 -4 38 25 28 58 -7 23 -43 27 -51 6z"/>
<path d="M3724 1066 c-11 -29 1 -61 23 -64 24 -4 38 25 28 58 -7 23 -43 27 -51 6z"/>
<path d="M4125 1061 c-10 -34 4 -63 28 -59 18 2 22 10 22 38 0 28 -4 36 -22 38 -14 2 -23 -3 -28 -17z"/>
<path d="M4550 1061 c0 -15 6 -21 21 -21 25 0 22 33 -4 38 -12 2 -17 -3 -17 -17z"/>
</g>
<g id="layer104" fill="#676297" stroke="none">
<path d="M1560 3465 c-7 -8 -10 -21 -7 -29 3 -8 1 -30 -5 -50 -20 -65 -18 -66 267 -66 l252 0 39 29 c21 15 50 40 63 55 14 14 30 26 38 26 26 0 13 -26 -34 -67 l-48 -42 92 -1 91 0 7 30 c9 43 25 47 25 7 l0 -35 110 -1 c105 -1 110 0 101 18 -16 29 -81 82 -127 103 -69 30 -183 39 -459 36 l-260 -3 59 -29 c88 -43 176 -47 280 -12 79 27 94 28 81 6 -17 -27 -100 -53 -185 -58 -104 -6 -175 12 -249 63 -55 38 -109 46 -131 20z"/>
<path d="M2483 3450 c29 -18 60 -50 79 -80 l31 -50 101 0 101 1 -47 43 c-58 53 -124 87 -184 94 -25 2 -47 9 -50 13 -3 5 -22 9 -42 9 l-36 0 47 -30z"/>
<path d="M2680 3456 c50 -26 82 -54 121 -104 l25 -33 128 3 127 3 -30 45 c-16 25 -43 60 -60 78 -28 30 -35 32 -92 32 l-63 0 37 -38 c37 -38 47 -62 25 -62 -6 0 -35 23 -64 50 l-53 50 -73 0 -73 -1 45 -23z"/>
<path d="M3020 3472 c0 -5 9 -17 19 -26 11 -10 31 -42 45 -72 l26 -54 87 0 c75 0 84 2 68 13 -31 24 0 28 46 7 41 -18 67 -20 330 -20 l285 0 10 37 c13 53 36 57 28 4 l-7 -41 126 0 c108 0 126 2 121 15 -4 8 -2 15 4 15 5 0 26 -7 45 -15 27 -11 72 -15 174 -14 102 1 126 3 92 9 -52 9 -89 26 -89 40 0 13 2 13 68 -6 40 -12 73 -15 119 -10 40 4 63 3 63 -4 0 -5 -10 -12 -22 -14 -13 -3 -32 -7 -43 -9 -11 -3 18 -5 65 -6 64 -1 92 3 110 15 35 24 98 84 122 117 l19 27 -228 0 c-184 -1 -224 -3 -208 -13 13 -8 70 -13 160 -14 109 -1 140 -4 140 -14 0 -40 -223 -35 -336 7 -48 17 -99 28 -144 30 l-70 4 47 -15 c49 -16 63 -28 53 -44 -3 -6 -22 -4 -47 5 -80 28 -149 12 -215 -52 -54 -51 -75 -46 -38 9 26 37 84 74 140 88 19 4 -9 7 -78 8 -92 1 -116 -2 -167 -23 -191 -78 -409 -78 -601 0 -63 26 -145 32 -152 12 -3 -10 -13 -10 -50 0 -54 14 -117 16 -117 4z"/>
<path d="M3401 3470 c29 -16 170 -40 239 -40 70 0 211 24 240 40 9 5 -94 9 -239 8 -140 0 -248 -4 -240 -8z"/>
<path d="M4945 3440 c-16 -23 -51 -59 -78 -81 l-50 -39 216 0 c163 0 216 3 220 13 4 10 7 10 18 0 9 -10 62 -13 194 -12 134 0 174 3 155 11 -15 6 -67 8 -129 4 -98 -5 -103 -4 -87 12 27 27 203 23 274 -6 54 -23 142 -30 142 -12 0 13 39 13 77 0 16 -6 70 -10 119 -8 l89 3 -80 27 c-140 48 -281 70 -460 71 -173 1 -278 -13 -443 -59 -51 -15 -96 -23 -100 -20 -10 11 16 24 99 50 158 51 231 61 439 61 229 0 328 -17 518 -91 95 -37 125 -44 183 -44 78 0 79 2 25 78 -43 61 -81 82 -152 82 -45 0 -55 -3 -46 -12 7 -7 12 -18 12 -25 0 -21 -25 -15 -49 13 -22 25 -26 26 -85 19 -33 -5 -90 -7 -126 -7 -36 1 -245 4 -466 8 l-400 5 -29 -41z"/>
<path d="M6270 3472 c0 -5 11 -19 24 -31 13 -13 34 -45 45 -72 20 -47 23 -49 60 -49 53 0 63 16 54 80 -7 49 -11 54 -43 66 -40 14 -140 18 -140 6z"/>
<path d="M1917 3250 l383 -5 -157 -270 c-86 -148 -168 -297 -184 -331 -79 -173 -75 -384 11 -554 66 -129 765 -1330 804 -1380 79 -103 205 -186 341 -227 55 -16 130 -18 858 -21 667 -2 813 0 884 12 153 26 312 122 399 239 67 91 792 1350 825 1433 56 141 57 326 2 464 -14 35 -100 192 -190 347 -89 155 -163 285 -163 288 0 2 165 6 368 8 332 2 325 2 -73 2 l-440 0 -3 -40 c-6 -94 -30 -115 -132 -115 l-60 0 0 -784 c0 -519 -4 -794 -10 -812 -22 -56 30 -53 -987 -54 l-943 0 0 -35 c0 -33 2 -35 25 -29 41 10 75 -19 75 -65 0 -59 -42 -87 -91 -61 -13 7 -19 7 -19 0 0 -5 -7 -10 -15 -10 -11 0 -15 20 -17 98 l-3 97 -365 2 c-252 2 -372 6 -387 14 -12 7 -27 25 -33 42 -6 20 -10 293 -10 813 l0 784 -60 0 c-102 0 -126 21 -132 115 l-3 40 -440 0 -440 0 382 -5z m1201 -1895 l18 -36 17 36 c12 26 23 35 41 35 l24 0 -28 -52 -29 -52 25 -41 c29 -50 29 -55 4 -55 -12 0 -26 13 -38 35 l-18 36 -13 -36 c-9 -27 -18 -35 -37 -35 -30 0 -30 1 2 55 l25 44 -25 44 c-31 53 -32 57 -6 57 12 0 26 -13 38 -35z m232 15 c44 -44 14 -120 -48 -120 -29 0 -72 42 -72 70 0 29 44 70 75 70 14 0 34 -9 45 -20z m345 -5 c14 -13 25 -33 25 -45 0 -29 -44 -70 -75 -70 -36 0 -65 33 -65 74 0 63 69 87 115 41z m255 -45 c0 -63 -2 -70 -19 -70 -17 0 -20 8 -23 52 -2 41 -7 54 -20 56 -15 3 -18 -5 -18 -52 0 -49 -3 -56 -19 -56 -17 0 -20 8 -23 52 -2 41 -7 54 -20 56 -15 3 -18 -5 -18 -52 0 -49 -2 -56 -20 -56 -18 0 -20 7 -20 70 l0 70 100 0 100 0 0 -70z m145 45 c14 -13 25 -33 25 -45 0 -29 -44 -70 -75 -70 -36 0 -65 33 -65 74 0 63 69 87 115 41z m186 -25 l18 -45 0 48 c1 40 4 47 21 47 18 0 20 -7 20 -70 0 -68 -1 -70 -25 -70 -21 0 -30 9 -45 43 l-19 42 0 -42 c-1 -36 -4 -43 -21 -43 -18 0 -20 7 -20 71 0 70 0 70 26 67 21 -2 30 -13 45 -48z m274 38 c34 -15 43 -53 19 -80 -14 -15 -16 -22 -6 -25 6 -3 12 -18 12 -34 0 -34 -27 -49 -91 -49 l-39 0 0 100 0 100 40 0 c21 0 51 -5 65 -12z m175 -44 c0 -58 -17 -84 -55 -84 -58 0 -70 29 -12 31 l32 1 -38 15 c-25 11 -39 24 -44 41 -8 34 16 50 73 50 l44 -1 0 -53z m81 4 l1 -53 13 48 c7 27 16 51 19 54 13 13 35 -9 42 -42 9 -52 24 -53 24 -1 0 40 3 46 21 46 20 0 21 -4 15 -46 -3 -26 -6 -57 -6 -70 0 -37 -47 -33 -61 4 -5 15 -12 34 -15 42 -4 10 -10 1 -18 -25 -9 -32 -17 -41 -37 -43 -23 -3 -27 1 -32 35 -13 74 -9 103 13 103 17 0 20 -7 21 -52z m-1261 -202 c0 -34 1 -35 33 -29 28 4 37 1 55 -22 27 -35 28 -69 2 -95 -22 -22 -42 -25 -71 -10 -13 7 -19 7 -19 0 0 -5 -9 -10 -20 -10 -19 0 -20 7 -20 100 0 93 1 100 20 100 16 0 20 -7 20 -34z m-323 -63 l16 -38 16 37 c12 28 22 38 39 38 28 0 28 -4 -4 -57 l-25 -44 25 -46 c14 -25 26 -47 26 -49 0 -2 -11 -4 -24 -4 -19 0 -27 8 -37 37 l-12 37 -19 -37 c-12 -24 -26 -37 -38 -37 -25 0 -25 0 2 56 l23 46 -28 49 -27 49 26 0 c19 0 29 -8 41 -37z m228 12 c14 -13 25 -33 25 -45 0 -29 -44 -70 -75 -70 -36 0 -65 33 -65 74 0 63 69 87 115 41z m340 0 c14 -13 25 -33 25 -45 0 -29 -44 -70 -75 -70 -36 0 -65 33 -65 74 0 63 69 87 115 41z m255 -45 c0 -63 -2 -70 -20 -70 -18 0 -20 7 -20 56 0 47 -3 55 -17 52 -14 -2 -19 -15 -21 -56 -3 -44 -6 -52 -23 -52 -16 0 -19 7 -19 56 0 47 -3 55 -17 52 -14 -2 -19 -15 -21 -56 -3 -44 -6 -52 -23 -52 -17 0 -19 7 -19 70 l0 70 100 0 100 0 0 -70z m150 50 c44 -44 14 -120 -48 -120 -29 0 -72 42 -72 70 0 29 44 70 75 70 14 0 34 -9 45 -20z m160 -20 c0 -39 1 -40 35 -40 34 0 35 1 35 40 0 33 3 40 20 40 19 0 20 -7 20 -100 0 -93 -1 -100 -20 -100 -17 0 -20 7 -20 40 0 39 -1 40 -35 40 -34 0 -35 -1 -35 -40 0 -33 -3 -40 -20 -40 -19 0 -20 7 -20 100 0 93 1 100 20 100 17 0 20 -7 20 -40z m270 -13 c0 -57 -19 -87 -56 -87 -56 0 -74 27 -21 32 27 3 29 5 12 12 -40 15 -50 24 -53 45 -5 35 14 49 68 49 l50 0 0 -51z m71 1 l1 -53 15 53 c19 65 40 66 62 2 l16 -45 3 48 c3 39 6 47 23 47 15 0 19 -7 19 -39 0 -21 -3 -53 -6 -70 -6 -27 -11 -32 -33 -29 -20 2 -28 11 -36 42 -12 43 -19 40 -30 -11 -6 -28 -11 -33 -36 -33 -26 0 -29 3 -29 33 0 17 -3 49 -6 70 -6 33 -4 37 15 37 19 0 21 -6 22 -52z"/>
<path d="M3280 1341 c-14 -27 4 -64 28 -59 24 5 24 71 0 76 -9 2 -22 -6 -28 -17z"/>
<path d="M3624 1346 c-10 -25 0 -61 18 -64 24 -5 42 32 28 58 -12 23 -38 26 -46 6z"/>
<path d="M4024 1346 c-10 -25 0 -61 18 -64 24 -5 42 32 28 58 -12 23 -38 26 -46 6z"/>
<path d="M4490 1330 c0 -27 3 -31 23 -28 16 2 22 10 22 28 0 18 -6 26 -22 28 -20 3 -23 -1 -23 -28z"/>
<path d="M4490 1245 c0 -22 4 -26 23 -23 14 2 22 10 22 23 0 13 -8 21 -22 23 -19 3 -23 -1 -23 -23z"/>
<path d="M4658 1354 c-11 -10 3 -34 19 -34 8 0 13 7 11 17 -3 18 -20 27 -30 17z"/>
<path d="M3562 1068 c-26 -26 -2 -75 31 -62 22 8 29 32 17 55 -12 22 -30 25 -48 7z"/>
<path d="M3384 1066 c-10 -25 0 -61 18 -64 24 -5 42 32 28 58 -12 23 -38 26 -46 6z"/>
<path d="M3724 1066 c-10 -25 0 -61 18 -64 24 -5 42 32 28 58 -12 23 -38 26 -46 6z"/>
<path d="M4130 1061 c-14 -27 4 -64 28 -59 12 2 17 13 17 38 0 41 -27 53 -45 21z"/>
<path d="M4552 1064 c2 -11 11 -20 22 -22 13 -3 17 1 14 14 -2 11 -11 20 -22 22 -13 3 -17 -1 -14 -14z"/>
<path d="M2487 3243 c-14 -13 -7 -71 9 -77 9 -3 238 -6 510 -6 l495 0 33 35 33 35 413 0 413 0 33 -35 33 -35 518 0 c285 0 524 4 531 9 8 5 12 22 10 42 l-3 34 -1511 3 c-831 1 -1514 -1 -1517 -5z"/>
<path d="M3788 3163 c105 -2 279 -2 385 0 105 1 19 2 -193 2 -212 0 -298 -1 -192 -2z"/>
<path d="M3468 3103 c-105 -4 -108 -4 -108 -26 0 -13 5 -28 12 -35 9 -9 155 -12 596 -12 l584 0 -19 33 c-18 30 -23 32 -94 38 -75 6 -774 7 -971 2z"/>
<path d="M2676 3048 c-3 -29 -6 -382 -6 -783 0 -555 3 -734 12 -743 17 -17 2619 -17 2636 0 9 9 12 188 12 743 0 401 -3 754 -6 783 -5 34 -11 52 -20 52 -12 0 -14 -129 -14 -780 l0 -780 -1290 0 -1290 0 0 780 c0 651 -2 780 -14 780 -9 0 -15 -18 -20 -52z"/>
<path d="M2750 2395 l0 -605 1225 0 1225 0 0 -60 0 -60 -1226 0 -1225 0 3 -42 3 -43 1245 0 1245 0 3 708 2 707 -1250 0 -1250 0 0 -605z m540 -155 c0 -18 -7 -20 -70 -20 -63 0 -70 2 -70 20 0 18 7 20 70 20 63 0 70 -2 70 -20z m270 0 c0 -19 -7 -20 -120 -20 -113 0 -120 1 -120 20 0 19 7 20 120 20 113 0 120 -1 120 -20z m-530 -615 c0 -12 -17 -15 -95 -15 -78 0 -95 3 -95 15 0 12 17 15 95 15 78 0 95 -3 95 -15z"/>
<path d="M3457 1353 c-12 -12 -7 -50 8 -63 30 -25 61 30 33 58 -13 13 -31 16 -41 5z"/>
</g>
<g id="layer105" fill="#529ac4" stroke="none">
<path d="M2750 2395 l0 -605 1225 0 1225 0 0 -60 0 -60 -1225 0 -1225 0 0 -40 0 -40 1250 0 1250 0 0 705 0 705 -1250 0 -1250 0 0 -605z m2160 320 l0 -95 -150 0 -150 0 0 95 0 95 150 0 150 0 0 -95z m-1620 -475 c0 -18 -7 -20 -70 -20 -63 0 -70 2 -70 20 0 18 7 20 70 20 63 0 70 -2 70 -20z m270 0 c0 -19 -7 -20 -120 -20 -113 0 -120 1 -120 20 0 19 7 20 120 20 113 0 120 -1 120 -20z m490 -150 l0 -90 -155 0 -155 0 0 90 0 90 155 0 155 0 0 -90z m-1020 -465 c0 -12 -17 -15 -95 -15 -78 0 -95 3 -95 15 0 12 17 15 95 15 78 0 95 -3 95 -15z"/>
</g>
<g id="layer106" fill="#eb6467" stroke="none">
<path d="M2750 2395 l0 -605 1225 0 1225 0 0 -60 0 -60 -1225 0 -1225 0 0 -40 0 -40 1250 0 1250 0 0 705 0 705 -1250 0 -1250 0 0 -605z m2160 320 l0 -95 -150 0 -150 0 0 95 0 95 150 0 150 0 0 -95z m-1535 -345 c0 -12 -16 -16 -74 -18 -73 -3 -100 6 -86 28 4 7 34 10 83 8 61 -2 77 -6 77 -18z m-85 -130 c0 -18 -7 -20 -70 -20 -63 0 -70 2 -70 20 0 18 7 20 70 20 63 0 70 -2 70 -20z m270 0 c0 -19 -7 -20 -120 -20 -113 0 -120 1 -120 20 0 19 7 20 120 20 113 0 120 -1 120 -20z m490 -150 l0 -90 -155 0 -155 0 0 90 0 90 155 0 155 0 0 -90z m-1020 -465 c0 -12 -17 -15 -95 -15 -78 0 -95 3 -95 15 0 12 17 15 95 15 78 0 95 -3 95 -15z"/>
<path d="M4540 1741 c0 -27 19 -36 37 -18 18 18 9 37 -18 37 -12 0 -19 -7 -19 -19z"/>
</g>
<g id="layer107" fill="#aeacdb" stroke="none">
<path d="M1557 3463 c-2 -5 -3 -37 -3 -73 l1 -65 245 -3 c135 -1 254 0 266 3 12 2 50 30 85 62 54 48 65 54 68 38 2 -13 -12 -33 -45 -62 l-49 -43 90 0 91 0 9 31 c12 37 31 35 27 -2 l-3 -27 111 -1 111 -1 -22 31 c-12 17 -40 44 -62 60 -75 55 -110 59 -451 58 l-311 -1 55 -25 c78 -37 175 -42 255 -13 90 32 105 35 105 17 0 -8 -21 -25 -47 -38 -42 -21 -62 -24 -168 -24 -126 0 -153 8 -237 66 -26 19 -113 27 -121 12z"/>
<path d="M2497 3441 c22 -16 53 -50 69 -75 l29 -46 93 0 c50 0 92 4 92 9 0 17 -74 74 -125 97 -49 23 -135 44 -178 44 -15 0 -11 -6 20 -29z"/>
<path d="M2715 3436 c28 -18 64 -52 80 -75 l30 -41 128 0 128 0 -15 28 c-8 15 -33 48 -56 75 -41 46 -42 47 -103 47 l-61 0 32 -33 c33 -34 41 -57 21 -57 -7 0 -34 20 -60 45 -46 43 -50 45 -111 45 l-63 0 50 -34z"/>
<path d="M3054 3426 c18 -23 38 -57 45 -74 l13 -32 80 0 c71 0 79 2 68 15 -22 26 -3 29 51 6 49 -20 68 -21 334 -21 l282 0 7 40 c4 27 11 40 22 40 13 0 15 -7 9 -40 l-7 -40 126 0 c107 0 125 2 120 15 -4 8 -1 15 5 15 7 0 28 -7 48 -15 25 -11 71 -15 162 -14 122 0 124 1 78 13 -48 13 -76 31 -65 41 3 3 33 -2 68 -11 44 -11 80 -14 122 -9 49 6 60 5 56 -6 -3 -8 -18 -17 -34 -20 -19 -4 -3 -7 44 -8 61 -1 80 3 105 21 44 29 85 68 109 101 l19 27 -208 -1 c-147 0 -199 -4 -178 -10 17 -5 82 -8 145 -7 95 2 115 0 115 -12 0 -40 -214 -38 -338 4 -42 14 -96 26 -120 25 -40 -1 -41 -1 -14 -11 35 -13 40 -54 5 -43 -84 27 -116 29 -164 10 -27 -10 -66 -35 -86 -57 -21 -21 -42 -38 -48 -38 -36 0 34 90 93 119 l42 21 -89 0 c-72 0 -105 -5 -175 -30 -166 -57 -356 -58 -505 -3 -63 23 -88 26 -223 28 l-152 3 33 -42z"/>
<path d="M3460 3454 c69 -22 204 -28 290 -14 138 23 116 29 -110 28 -209 0 -222 -1 -180 -14z"/>
<path d="M4902 3395 l-72 -75 204 0 c154 0 205 3 209 13 3 10 9 10 26 0 23 -14 155 -18 133 -4 -27 17 19 35 101 39 69 4 94 0 160 -22 78 -26 157 -34 157 -16 0 13 39 13 77 0 16 -6 70 -10 119 -8 l89 3 -81 28 c-272 93 -653 94 -923 2 -45 -15 -73 -20 -77 -13 -9 14 3 22 71 47 107 39 243 62 401 68 236 9 398 -17 598 -97 82 -33 112 -40 168 -40 l69 0 -17 33 c-9 17 -35 51 -57 75 -40 40 -43 42 -103 42 -60 0 -61 -1 -56 -25 6 -31 -8 -32 -36 -2 l-22 23 -533 2 -532 1 -73 -74z"/>
<path d="M6294 3448 c9 -13 28 -47 43 -76 27 -52 28 -53 68 -50 l40 3 3 61 c3 57 1 61 -23 72 -14 7 -53 12 -87 12 l-60 0 16 -22z"/>
<path d="M5435 3330 c-13 -5 22 -8 95 -8 72 0 106 3 90 8 -34 11 -160 11 -185 0z"/>
<path d="M2140 2969 c-89 -155 -173 -306 -186 -335 -74 -168 -68 -378 16 -544 66 -129 765 -1330 804 -1380 79 -103 205 -186 341 -227 55 -16 130 -18 858 -21 667 -2 813 0 884 12 153 26 312 122 399 239 67 91 792 1350 825 1433 56 142 57 327 1 465 -15 37 -101 195 -192 353 l-165 286 -72 0 -73 0 0 -50 c0 -41 -5 -56 -25 -75 -21 -22 -33 -25 -95 -25 l-70 0 0 -789 c0 -479 -4 -800 -10 -815 -22 -58 16 -56 -1000 -56 l-930 0 0 -28 c0 -26 3 -28 30 -24 53 8 91 -47 69 -100 -13 -32 -24 -36 -96 -36 l-53 0 0 94 0 94 -355 0 c-386 0 -399 2 -423 55 -9 19 -12 225 -12 815 l0 790 -70 0 c-62 0 -74 3 -95 25 -20 19 -25 34 -25 75 l0 50 -59 0 -59 0 -162 -281z m980 -1611 c11 -32 12 -32 26 -14 7 11 14 26 14 33 0 8 12 13 31 13 l30 0 -28 -50 -28 -50 26 -50 27 -50 -28 0 c-23 0 -30 6 -40 33 l-12 32 -16 -32 c-11 -23 -23 -33 -39 -33 -28 0 -28 -1 -1 56 l23 46 -28 49 -27 49 29 0 c24 0 31 -6 41 -32z m231 14 c28 -23 30 -73 4 -102 -41 -45 -125 -12 -125 50 0 61 71 91 121 52z m349 -2 c43 -43 11 -120 -49 -120 -64 0 -98 73 -56 120 24 26 79 26 105 0z m250 -50 c0 -68 -1 -70 -25 -70 -24 0 -25 3 -25 55 0 42 -3 55 -15 55 -12 0 -15 -13 -15 -55 0 -52 -1 -55 -25 -55 -24 0 -25 3 -25 55 0 42 -3 55 -15 55 -12 0 -15 -13 -15 -55 0 -52 -1 -55 -25 -55 -24 0 -25 2 -25 70 l0 70 105 0 105 0 0 -70z m150 50 c43 -43 11 -120 -49 -120 -64 0 -98 73 -56 120 24 26 79 26 105 0z m180 -22 l20 -43 0 43 c0 35 3 42 20 42 18 0 20 -7 20 -70 0 -68 -1 -70 -25 -70 -21 0 -30 9 -45 43 l-20 42 0 -42 c0 -36 -3 -43 -20 -43 -18 0 -20 7 -20 70 0 68 1 70 25 70 21 0 30 -9 45 -42z m288 26 c25 -17 29 -57 8 -76 -11 -11 -11 -16 1 -35 30 -45 -13 -78 -93 -71 l-39 3 -3 98 -3 97 53 0 c32 0 62 -6 76 -16z m164 -44 c-2 -33 -10 -64 -17 -70 -20 -17 -90 -9 -90 10 0 11 9 14 30 12 l30 -2 -35 17 c-22 12 -36 27 -38 41 -5 37 14 51 71 51 l52 0 -3 -59z m79 18 l1 -43 12 40 c16 51 46 55 60 8 12 -43 26 -42 26 2 0 28 4 35 20 35 17 0 20 -7 20 -39 0 -21 -3 -53 -6 -70 -5 -26 -11 -31 -34 -31 -23 0 -30 5 -35 30 -9 43 -22 45 -29 5 -6 -30 -11 -35 -35 -35 -35 0 -41 14 -41 86 0 47 2 54 20 54 17 0 20 -7 21 -42z m-1251 -211 c0 -31 2 -33 29 -29 57 8 92 -64 55 -116 -17 -24 -62 -30 -82 -10 -9 9 -12 9 -12 0 0 -7 -9 -12 -20 -12 -19 0 -20 7 -20 100 l0 100 25 0 c22 0 25 -4 25 -33z m-334 -59 l17 -33 15 33 c12 24 22 32 43 32 l27 0 -28 -52 -29 -52 25 -41 c30 -52 30 -55 0 -55 -17 0 -27 9 -37 32 l-13 31 -15 -31 c-11 -25 -21 -32 -43 -32 l-28 0 27 49 27 49 -27 51 -28 51 25 0 c19 0 30 -9 42 -32z m234 12 c43 -43 11 -120 -49 -120 -64 0 -98 73 -56 120 24 26 79 26 105 0z m340 0 c43 -43 11 -120 -49 -120 -64 0 -98 73 -56 120 24 26 79 26 105 0z m260 -50 c0 -68 -1 -70 -25 -70 -24 0 -25 3 -25 55 0 42 -3 55 -15 55 -12 0 -15 -13 -15 -55 0 -52 -1 -55 -25 -55 -24 0 -25 3 -25 55 0 42 -3 55 -15 55 -12 0 -15 -13 -15 -55 0 -52 -1 -55 -25 -55 -24 0 -25 2 -25 70 l0 70 105 0 105 0 0 -70z m141 52 c28 -23 30 -73 4 -102 -41 -45 -125 -12 -125 50 0 61 71 91 121 52z m159 -22 c0 -39 1 -40 35 -40 34 0 35 1 35 40 0 36 3 40 25 40 l25 0 0 -100 0 -100 -25 0 c-22 0 -25 4 -25 40 0 39 -1 40 -35 40 -34 0 -35 -1 -35 -40 0 -36 -2 -40 -25 -40 l-25 0 0 100 0 100 25 0 c23 0 25 -4 25 -40z m270 -15 c0 -66 -17 -87 -69 -83 -23 2 -37 9 -39 19 -2 12 4 15 30 12 l33 -4 -32 15 c-27 12 -53 42 -53 60 0 19 36 35 80 34 l50 0 0 -53z m72 13 l3 -43 13 43 c9 29 18 42 31 42 12 0 22 -13 32 -42 l14 -43 3 43 c3 34 7 42 23 42 17 0 19 -7 19 -71 l0 -70 -32 3 c-26 2 -33 9 -44 38 l-12 35 -11 -28 c-6 -16 -11 -33 -11 -38 0 -5 -13 -9 -29 -9 -25 0 -29 4 -35 38 -12 72 -8 102 13 102 16 0 20 -8 23 -42z"/>
<path d="M3284 1347 c-9 -25 0 -62 15 -62 22 0 38 32 25 52 -14 23 -33 28 -40 10z"/>
<path d="M3632 1348 c-17 -17 -15 -43 3 -58 21 -18 37 0 33 36 -3 31 -18 40 -36 22z"/>
<path d="M4032 1348 c-17 -17 -15 -43 3 -58 21 -18 37 0 33 36 -3 31 -18 40 -36 22z"/>
<path d="M4490 1330 c0 -31 6 -35 34 -24 32 12 13 54 -25 54 -5 0 -9 -13 -9 -30z"/>
<path d="M4490 1245 c0 -26 14 -31 39 -16 19 12 6 41 -19 41 -15 0 -20 -7 -20 -25z"/>
<path d="M4662 1344 c1 -9 9 -19 16 -22 9 -3 13 2 10 14 -1 9 -9 19 -16 22 -9 3 -13 -2 -10 -14z"/>
<path d="M3567 1073 c-4 -3 -7 -19 -7 -35 0 -25 4 -29 23 -26 14 2 23 11 25 27 4 29 -24 52 -41 34z"/>
<path d="M3392 1068 c-17 -17 -15 -43 3 -58 21 -18 37 0 33 36 -3 31 -18 40 -36 22z"/>
<path d="M3732 1068 c-17 -17 -15 -43 3 -58 21 -18 37 0 33 36 -3 31 -18 40 -36 22z"/>
<path d="M4134 1067 c-9 -25 0 -62 15 -62 22 0 38 32 25 52 -14 23 -33 28 -40 10z"/>
<path d="M4555 1070 c-8 -14 3 -30 21 -30 16 0 16 2 8 24 -7 18 -20 21 -29 6z"/>
<path d="M2487 3243 c-11 -11 -8 -58 5 -71 9 -9 136 -12 511 -12 l500 0 32 38 33 37 412 0 412 0 33 -37 32 -38 520 0 c568 0 548 -2 541 57 l-3 28 -1511 3 c-831 1 -1514 -1 -1517 -5z"/>
<path d="M2682 2308 l3 -793 1315 0 1315 0 3 793 c2 634 0 793 -10 790 -10 -4 -14 -169 -16 -781 l-2 -777 -1290 0 -1290 0 -2 777 c-2 612 -6 777 -16 781 -10 3 -12 -156 -10 -790z"/>
<path d="M3360 3076 c0 -13 6 -29 14 -35 9 -8 174 -10 595 -9 l581 3 -20 33 -20 32 -575 0 -575 0 0 -24z"/>
<path d="M2750 2395 l0 -605 1225 0 1225 0 0 -60 0 -60 -1225 0 -1225 0 0 -40 0 -40 1250 0 1250 0 0 705 0 705 -1250 0 -1250 0 0 -605z m1300 320 l0 -96 -152 3 -153 3 -3 79 c-2 44 -1 85 2 93 4 10 39 13 156 13 l150 0 0 -95z m860 0 l0 -95 -150 0 -150 0 0 95 0 95 150 0 150 0 0 -95z m-1535 -345 c0 -12 -16 -16 -74 -18 -73 -3 -100 6 -86 28 4 7 34 10 83 8 61 -2 77 -6 77 -18z m-85 -130 c0 -18 -7 -20 -70 -20 -63 0 -70 2 -70 20 0 18 7 20 70 20 63 0 70 -2 70 -20z m270 0 c0 -19 -7 -20 -120 -20 -113 0 -120 1 -120 20 0 19 7 20 120 20 113 0 120 -1 120 -20z m-155 -56 c23 -9 48 -62 41 -90 -16 -63 -96 -85 -141 -39 -49 48 -17 135 50 135 18 0 41 -3 50 -6z m645 -94 l0 -90 -155 0 -155 0 0 90 0 90 155 0 155 0 0 -90z m430 0 l0 -90 -150 0 -150 0 0 90 0 90 150 0 150 0 0 -90z m-1450 -465 c0 -12 -17 -15 -95 -15 -78 0 -95 3 -95 15 0 12 17 15 95 15 78 0 95 -3 95 -15z"/>
<path d="M3240 2370 c0 -5 25 -10 55 -10 30 0 55 5 55 10 0 6 -25 10 -55 10 -30 0 -55 -4 -55 -10z"/>
<path d="M4800 1755 c-7 -8 -10 -22 -6 -30 4 -13 34 -15 186 -15 152 0 182 2 186 15 4 8 1 22 -6 30 -10 12 -44 15 -180 15 -136 0 -170 -3 -180 -15z"/>
<path d="M2820 1730 l0 -31 83 3 c81 3 82 3 85 31 l3 27 -85 0 -86 0 0 -30z"/>
<path d="M4620 1735 c0 -20 5 -25 25 -25 20 0 25 5 25 25 0 20 -5 25 -25 25 -20 0 -25 -5 -25 -25z"/>
<path d="M4700 1735 c0 -20 5 -25 25 -25 20 0 25 5 25 25 0 20 -5 25 -25 25 -20 0 -25 -5 -25 -25z"/>
<path d="M3030 1730 c0 -6 30 -10 70 -10 40 0 70 4 70 10 0 6 -30 10 -70 10 -40 0 -70 -4 -70 -10z"/>
<path d="M3190 1730 c0 -6 30 -10 70 -10 40 0 70 4 70 10 0 6 -30 10 -70 10 -40 0 -70 -4 -70 -10z"/>
<path d="M3350 1730 c0 -6 28 -10 65 -10 37 0 65 4 65 10 0 6 -28 10 -65 10 -37 0 -65 -4 -65 -10z"/>
<path d="M3500 1730 c0 -6 30 -10 70 -10 40 0 70 4 70 10 0 6 -30 10 -70 10 -40 0 -70 -4 -70 -10z"/>
<path d="M3460 1345 c-19 -23 -8 -50 20 -50 16 0 26 6 28 18 4 18 -14 47 -28 47 -4 0 -13 -7 -20 -15z"/>
</g>
<g id="layer108" fill="#fed879" stroke="none">
<path d="M2760 2395 l0 -605 1225 0 1225 0 0 -60 0 -60 -1225 0 -1225 0 0 -40 0 -40 1240 0 1240 0 0 705 0 705 -1240 0 -1240 0 0 -605z m1290 320 l0 -96 -152 3 -153 3 -3 79 c-2 44 -1 85 2 93 4 10 39 13 156 13 l150 0 0 -95z m870 0 l0 -95 -155 0 -155 0 0 95 0 95 155 0 155 0 0 -95z m-1545 -345 c0 -12 -16 -16 -74 -18 -73 -3 -100 6 -86 28 4 7 34 10 83 8 61 -2 77 -6 77 -18z m-75 -130 c0 -18 -7 -20 -75 -20 -68 0 -75 2 -75 20 0 18 7 20 75 20 68 0 75 -2 75 -20z m260 0 c0 -19 -7 -20 -120 -20 -113 0 -120 1 -120 20 0 19 7 20 120 20 113 0 120 -1 120 -20z m-155 -56 c23 -9 48 -62 41 -90 -16 -63 -96 -85 -141 -39 -49 48 -17 135 50 135 18 0 41 -3 50 -6z m645 -94 l0 -90 -155 0 -155 0 0 90 0 90 155 0 155 0 0 -90z m430 0 l0 -90 -150 0 -150 0 0 90 0 90 150 0 150 0 0 -90z m-1450 -465 c0 -12 -17 -15 -95 -15 -78 0 -95 3 -95 15 0 12 17 15 95 15 78 0 95 -3 95 -15z"/>
</g>
<g id="layer109" fill="#dbcdf5" stroke="none">
<path d="M1550 3362 c0 -40 16 -42 262 -42 l238 0 40 26 c22 15 40 28 40 29 0 1 -130 2 -290 3 -271 1 -290 0 -290 -16z"/>
<path d="M2170 3350 l-35 -29 81 -1 c66 0 83 3 88 16 14 37 7 44 -47 44 -44 0 -58 -5 -87 -30z"/>
<path d="M2348 3350 c-4 -27 -2 -30 22 -30 14 0 31 5 38 12 8 8 15 8 26 -1 8 -7 36 -11 66 -9 l52 3 -22 28 c-20 25 -26 27 -100 27 l-78 0 -4 -30z"/>
<path d="M2585 3350 l16 -30 91 0 92 0 -29 30 c-27 28 -33 30 -107 30 l-79 0 16 -30z"/>
<path d="M2812 3349 l22 -29 118 0 119 0 -16 30 -15 29 -125 0 -124 -1 21 -29z"/>
<path d="M3105 3350 c15 -29 18 -30 86 -30 65 0 69 1 60 19 -17 30 8 32 69 5 53 -23 63 -23 326 -23 272 0 272 0 278 22 3 12 6 25 6 30 0 4 -189 7 -420 7 l-421 0 16 -30z"/>
<path d="M3970 3354 c-13 -34 -14 -34 19 -34 24 0 29 5 33 30 4 26 1 30 -19 30 -16 0 -27 -8 -33 -26z"/>
<path d="M4067 3350 l-27 -30 80 0 c66 0 78 2 74 15 -10 25 19 27 67 6 35 -16 64 -20 144 -20 90 0 97 2 67 13 -19 6 -38 19 -43 29 -9 15 -29 17 -173 17 l-163 0 -26 -30z"/>
<path d="M4510 3368 c19 -6 65 -8 102 -5 37 3 70 2 72 -2 6 -10 -6 -27 -24 -34 -8 -3 7 -6 34 -6 36 -1 61 6 93 24 23 14 43 28 43 30 0 3 -80 5 -177 4 -138 -1 -170 -3 -143 -11z"/>
<path d="M4870 3351 l-35 -30 203 0 c129 -1 202 3 202 9 0 13 37 13 45 0 3 -5 28 -10 56 -10 42 0 49 3 49 20 0 14 9 21 38 25 68 12 58 13 -85 14 -125 1 -152 -2 -220 -24 -90 -29 -113 -31 -113 -10 0 7 8 19 18 24 13 8 -1 10 -53 11 -64 0 -74 -3 -105 -29z"/>
<path d="M5607 3369 c24 -4 64 -17 89 -28 56 -25 103 -27 119 -4 12 16 16 16 77 -1 39 -10 89 -16 128 -14 l65 3 -83 28 c-79 26 -92 27 -260 26 -124 -1 -164 -4 -135 -10z"/>
<path d="M6135 3350 c50 -22 85 -30 127 -30 32 0 58 2 58 5 0 2 -5 16 -12 30 -11 25 -13 25 -127 25 l-116 -1 70 -29z"/>
<path d="M6354 3358 c3 -13 6 -26 6 -30 0 -13 65 -9 78 4 7 7 12 20 12 30 0 15 -9 18 -51 18 -48 0 -51 -1 -45 -22z"/>
<path d="M5465 3330 c-20 -5 2 -8 65 -8 76 0 87 2 55 9 -48 9 -80 9 -120 -1z"/>
<path d="M2760 2395 l0 -605 1225 0 1225 0 0 -60 0 -60 -1225 0 -1225 0 0 -40 0 -40 1240 0 1240 0 0 705 0 705 -1240 0 -1240 0 0 -605z m1290 320 l0 -96 -152 3 -153 3 -3 79 c-2 44 -1 85 2 93 4 10 39 13 156 13 l150 0 0 -95z m430 0 l0 -95 -150 0 -150 0 0 95 0 95 150 0 150 0 0 -95z m440 0 l0 -95 -155 0 -155 0 0 95 0 95 155 0 155 0 0 -95z m-440 -315 l0 -90 -150 0 -150 0 0 90 0 90 150 0 150 0 0 -90z m-1105 -30 c0 -12 -16 -16 -74 -18 -73 -3 -100 6 -86 28 4 7 34 10 83 8 61 -2 77 -6 77 -18z m-75 -130 c0 -18 -7 -20 -75 -20 -68 0 -75 2 -75 20 0 18 7 20 75 20 68 0 75 -2 75 -20z m260 0 c0 -19 -7 -20 -120 -20 -113 0 -120 1 -120 20 0 19 7 20 120 20 113 0 120 -1 120 -20z m-143 -65 c42 -30 34 -121 -12 -139 -87 -33 -160 57 -104 128 24 30 80 36 116 11z m633 -85 l0 -90 -155 0 -155 0 0 90 0 90 155 0 155 0 0 -90z m430 0 l0 -90 -150 0 -150 0 0 90 0 90 150 0 150 0 0 -90z m430 0 l0 -90 -150 0 -150 0 0 90 0 90 150 0 150 0 0 -90z m-1880 -465 c0 -12 -17 -15 -95 -15 -78 0 -95 3 -95 15 0 12 17 15 95 15 78 0 95 -3 95 -15z"/>
<path d="M3263 2373 c15 -2 39 -2 55 0 15 2 2 4 -28 4 -30 0 -43 -2 -27 -4z"/>
<path d="M3254 797 c-3 -8 -4 -52 -2 -98 l3 -84 29 -3 c69 -8 111 29 82 73 -13 20 -13 25 -1 35 22 18 18 57 -7 74 -28 20 -97 21 -104 3z m80 -13 c9 -3 16 -16 16 -29 0 -23 -17 -35 -51 -35 -15 0 -19 7 -19 35 0 36 15 44 54 29z m7 -100 c18 -21 0 -48 -35 -52 -24 -3 -26 0 -26 32 0 31 3 36 24 36 13 0 29 -7 37 -16z"/>
<path d="M3403 798 c2 -7 17 -52 33 -100 39 -120 53 -119 94 7 35 111 34 105 16 105 -8 0 -17 -13 -21 -30 -6 -26 -11 -30 -41 -30 -30 0 -37 4 -45 30 -6 17 -18 30 -26 30 -8 0 -13 -6 -10 -12z m94 -108 c-12 -43 -19 -42 -35 8 -11 31 -10 32 17 32 28 0 28 0 18 -40z"/>
<path d="M3590 710 l0 -100 43 0 c67 0 98 48 63 96 -8 10 -11 23 -7 29 5 5 13 25 19 43 10 29 9 33 -4 30 -9 -2 -22 -19 -28 -38 -8 -24 -18 -36 -33 -38 -21 -3 -23 1 -23 37 0 30 -4 41 -15 41 -12 0 -15 -18 -15 -100z m74 -6 c9 -4 16 -18 16 -34 0 -27 -15 -40 -46 -40 -10 0 -14 12 -14 40 0 41 9 47 44 34z"/>
<path d="M3740 710 c0 -82 3 -100 15 -100 12 0 15 18 15 100 0 82 -3 100 -15 100 -12 0 -15 -18 -15 -100z"/>
<path d="M3843 795 c-12 -8 -27 -30 -33 -49 -14 -42 6 -96 43 -121 28 -18 98 -17 104 2 3 8 -8 10 -34 6 -49 -6 -81 18 -89 69 -5 30 -2 41 19 62 17 17 37 26 57 26 27 0 30 -3 30 -30 0 -23 -4 -30 -20 -30 -11 0 -20 -4 -20 -10 0 -5 16 -10 35 -10 35 0 35 0 35 44 0 31 -5 46 -16 50 -29 11 -89 6 -111 -9z"/>
<path d="M3993 798 c2 -7 17 -52 33 -100 39 -120 53 -119 94 7 35 111 34 105 16 105 -8 0 -17 -13 -21 -30 -6 -26 -11 -30 -41 -30 -30 0 -37 4 -45 30 -6 17 -18 30 -26 30 -8 0 -13 -6 -10 -12z m94 -108 c-12 -43 -19 -42 -35 8 -11 31 -10 32 17 32 28 0 28 0 18 -40z"/>
<path d="M4247 792 c-21 -23 -22 -56 -2 -72 11 -9 14 -23 9 -45 -6 -35 14 -65 45 -65 41 0 56 58 22 82 -18 13 -18 14 4 42 l22 28 11 -31 c6 -17 16 -31 21 -31 15 0 13 20 -4 50 -12 22 -11 27 2 43 15 15 15 17 0 17 -9 0 -19 -5 -22 -10 -4 -7 -12 -7 -25 0 -29 15 -65 12 -83 -8z m71 -11 c11 -6 8 -14 -11 -36 -14 -16 -29 -25 -35 -21 -13 8 -16 48 -5 59 9 9 35 8 51 -2z m2 -127 c0 -19 -28 -30 -42 -16 -5 5 -7 19 -3 31 5 17 10 19 26 11 10 -6 19 -17 19 -26z"/>
<path d="M4500 781 c-39 -38 -42 -97 -6 -137 18 -22 32 -28 67 -28 24 -1 45 4 46 9 1 6 -9 9 -22 7 -25 -3 -65 13 -77 32 -4 6 -8 28 -8 49 0 51 29 79 78 75 20 -2 37 2 37 7 0 6 -19 11 -43 13 -36 3 -47 -1 -72 -27z"/>
<path d="M4659 781 c-23 -23 -29 -38 -29 -71 0 -53 42 -100 90 -100 48 0 90 47 90 100 0 33 -6 48 -29 71 -40 39 -82 39 -122 0z m101 -11 c43 -43 15 -140 -40 -140 -33 0 -60 35 -60 80 0 45 27 80 60 80 11 0 29 -9 40 -20z"/>
<path d="M3618 463 c215 -2 569 -2 785 0 215 1 39 2 -393 2 -432 0 -608 -1 -392 -2z"/>
</g>
<g id="layer110" fill="#edeeee" stroke="none">
<path d="M3360 3081 c0 -42 -21 -41 596 -41 l584 0 -16 25 -16 25 -574 0 c-342 0 -574 -4 -574 -9z"/>
<path d="M2760 2395 l0 -605 1225 0 1225 0 0 -60 0 -60 -1225 0 -1225 0 0 -40 0 -40 1240 0 1240 0 0 705 0 705 -1240 0 -1240 0 0 -605z m1290 320 l0 -96 -152 3 -153 3 -3 79 c-2 44 -1 85 2 93 4 10 39 13 156 13 l150 0 0 -95z m430 0 l0 -95 -150 0 -150 0 0 95 0 95 150 0 150 0 0 -95z m440 0 l0 -95 -160 0 -160 0 0 95 0 95 160 0 160 0 0 -95z m-440 -315 l0 -90 -150 0 -150 0 0 90 0 90 150 0 150 0 0 -90z m-1110 -15 c23 -28 -5 -45 -75 -45 -43 0 -66 5 -75 15 -23 28 5 45 75 45 43 0 66 -5 75 -15z m-70 -145 c0 -18 -7 -20 -75 -20 -68 0 -75 2 -75 20 0 18 7 20 75 20 68 0 75 -2 75 -20z m260 0 c0 -19 -7 -20 -120 -20 -113 0 -120 1 -120 20 0 19 7 20 120 20 113 0 120 -1 120 -20z m-143 -65 c42 -30 34 -121 -12 -139 -87 -33 -160 57 -104 128 24 30 80 36 116 11z m633 -80 l0 -95 -155 0 -155 0 0 95 0 95 155 0 155 0 0 -95z m430 -5 l0 -90 -150 0 -150 0 0 90 0 90 150 0 150 0 0 -90z m430 0 l0 -90 -150 0 -150 0 0 90 0 90 150 0 150 0 0 -90z m-1880 -465 c0 -12 -17 -15 -95 -15 -78 0 -95 3 -95 15 0 12 17 15 95 15 78 0 95 -3 95 -15z"/>
<path d="M6122 2380 c0 -19 2 -27 5 -17 2 9 2 25 0 35 -3 9 -5 1 -5 -18z"/>
<path d="M2820 1735 c0 -25 1 -25 85 -25 84 0 85 0 85 25 0 25 -1 25 -85 25 -84 0 -85 0 -85 -25z"/>
<path d="M4795 1750 c-4 -6 -1 -18 6 -26 10 -12 42 -14 188 -12 168 3 176 4 176 23 0 19 -8 20 -182 23 -121 2 -184 -1 -188 -8z"/>
<path d="M3260 711 l0 -101 29 0 c55 0 81 16 81 50 0 18 -6 33 -16 37 -13 5 -12 8 5 25 41 37 16 78 -52 85 l-47 6 0 -102z m91 63 c19 -23 -1 -48 -40 -52 -30 -3 -31 -2 -31 32 0 33 2 36 29 36 16 0 34 -7 42 -16z m-13 -83 c8 -4 12 -19 10 -32 -2 -19 -10 -25 -35 -27 -32 -3 -33 -2 -33 32 0 31 3 36 23 36 12 0 28 -4 35 -9z"/>
<path d="M3434 713 c33 -100 57 -127 70 -81 3 13 17 58 30 101 14 42 20 77 15 77 -6 0 -15 -13 -20 -30 -10 -26 -16 -30 -49 -30 -35 0 -39 3 -45 30 -4 17 -13 30 -20 30 -10 0 -5 -25 19 -97z m71 0 c-3 -10 -9 -30 -12 -45 -3 -16 -9 -28 -13 -28 -4 0 -10 12 -13 28 -3 15 -9 35 -12 45 -6 14 -2 17 25 17 27 0 31 -3 25 -17z"/>
<path d="M3592 713 c3 -94 4 -98 27 -101 65 -10 108 35 78 82 -15 22 -15 28 -2 60 17 41 19 56 6 56 -5 0 -12 -12 -16 -27 -9 -39 -23 -53 -51 -53 -21 0 -24 5 -24 40 0 22 -5 40 -10 40 -7 0 -10 -35 -8 -97z m90 -28 c14 -32 -4 -55 -43 -55 -27 0 -29 3 -29 40 0 38 2 40 30 40 23 0 33 -6 42 -25z"/>
<path d="M3750 710 c0 -60 4 -100 10 -100 6 0 10 40 10 100 0 60 -4 100 -10 100 -6 0 -10 -40 -10 -100z"/>
<path d="M3855 798 c-33 -18 -45 -40 -45 -85 0 -33 6 -50 24 -68 28 -28 92 -43 109 -26 8 8 1 11 -26 11 -51 0 -87 36 -87 85 0 46 29 75 75 75 32 0 35 -2 35 -30 0 -23 -4 -30 -20 -30 -11 0 -20 -4 -20 -10 0 -5 14 -10 30 -10 29 0 30 2 30 44 0 31 -5 46 -16 50 -24 9 -67 7 -89 -6z"/>
<path d="M4024 713 c33 -100 57 -127 70 -81 3 13 17 58 30 101 14 42 20 77 15 77 -6 0 -15 -13 -20 -30 -10 -26 -16 -30 -49 -30 -35 0 -39 3 -45 30 -4 17 -13 30 -20 30 -10 0 -5 -25 19 -97z m71 0 c-3 -10 -9 -30 -12 -45 -3 -16 -9 -28 -13 -28 -4 0 -10 12 -13 28 -3 15 -9 35 -12 45 -6 14 -2 17 25 17 27 0 31 -3 25 -17z"/>
<path d="M4250 790 c-24 -24 -25 -38 -4 -68 10 -14 13 -33 9 -50 -8 -40 25 -70 60 -54 31 14 32 44 4 70 l-20 20 24 28 25 29 15 -35 c14 -32 15 -33 16 -10 0 14 -4 32 -9 40 -6 10 -4 20 7 32 13 15 14 18 2 18 -8 0 -20 -5 -26 -11 -8 -8 -17 -8 -31 0 -30 16 -49 14 -72 -9z m76 -11 c3 -6 -7 -25 -24 -42 l-31 -30 -12 26 c-9 21 -9 30 1 42 14 17 56 20 66 4z m-18 -101 c19 -19 15 -48 -7 -48 -25 0 -34 14 -26 40 7 23 16 25 33 8z"/>
<path d="M4520 797 c-52 -26 -63 -114 -20 -157 24 -24 87 -37 103 -21 8 8 2 11 -25 11 -53 0 -83 28 -83 80 0 52 30 80 84 80 27 0 32 3 21 10 -21 13 -50 12 -80 -3z"/>
<path d="M4666 789 c-60 -52 -36 -161 39 -175 65 -12 113 43 101 115 -7 44 -33 70 -77 77 -28 5 -41 1 -63 -17z m100 -20 c42 -47 12 -139 -46 -139 -38 0 -65 33 -65 80 0 47 27 80 65 80 15 0 35 -9 46 -21z"/>
<path d="M3628 463 c217 -2 568 -2 780 0 213 1 36 2 -393 2 -429 0 -603 -1 -387 -2z"/>
</g>


</svg>